# xmcd CD database file
#
# Track frame offsets:
#	150
#	15753
#	31768
#	42096
#	62810
#	91721
#	107313
#	119095
#	143230
#	157007
#	177374
#	189869
#
# Disc length: 2807 seconds
#
# Revision: 0
# Processed by: cddbd v1.5.2PL0 Copyright (c) Steve Scherf et al.
# Submitted via: CDex 1.51
#
DISCID=8b0af50c
DTITLE=Relax Music Voyage - Tranquility
DYEAR=2011
DGENRE=New Age
TTITLE0=Vanity
TTITLE1=Lovers
TTITLE2=Sex therapy
TTITLE3=Fashion house
TTITLE4=Passion
TTITLE5=Sentimental relax
TTITLE6=Woman's dream
TTITLE7=Polar
TTITLE8=Power love
TTITLE9=The life
TTITLE10=World relax
TTITLE11=New universe
EXTD=YEAR: 2011
EXTT0=
EXTT1=
EXTT2=
EXTT3=
EXTT4=
EXTT5=
EXTT6=
EXTT7=
EXTT8=
EXTT9=
EXTT10=
EXTT11=
PLAYORDER=
